<svg viewBox="0 0 12 12" fill="none" xmlns="http://www.w3.org/2000/svg">
                                <path fill="#EF4831" fill-rule="evenodd" clip-rule="evenodd" d="M9.7653 1.32828C8.73577 0.497449 7.42598 0 6 0C2.68629 0 0 2.68629 0 6C0 7.10497 0.298694 8.14018 0.819744 9.02929L3.98945 3.53919C4.23798 3.10873 4.78841 2.96124 5.21888 3.20977C5.30851 3.26152 5.38588 3.32636 5.44996 3.40049C5.53255 3.46772 5.60452 3.55085 5.66094 3.64856L7.04331 6.04291L9.7653 1.32828ZM7.81403 8.29514C7.73786 8.42401 7.62843 8.53562 7.48955 8.61581C7.05908 8.86434 6.50865 8.71685 6.26012 8.28638L4.79362 5.74633L2.04308 10.5104C3.0993 11.4378 4.48399 12 6 12C9.31371 12 12 9.31371 12 6C12 4.79481 11.6447 3.67262 11.0331 2.73247L7.87361 8.20479C7.85533 8.23645 7.83541 8.26658 7.81403 8.29514Z"/>
                            </svg>