<?xml version="1.0" encoding="UTF-8"?>
<svg id="Layer_1" xmlns="http://www.w3.org/2000/svg" xmlns:xlink="http://www.w3.org/1999/xlink" version="1.1" viewBox="0 0 130 130">
  <!-- Generator: Adobe Illustrator 29.2.1, SVG Export Plug-In . SVG Version: 2.1.0 Build 116)  -->
  <defs>
    <style>
      .st0 {
        fill: #0b0b0b;
      }

      .st1 {
        fill: #fff;
      }
    </style>
  </defs>
  <rect class="st0" width="130" height="130"/>
  <g>
    <path class="st1" d="M76.6,49.5h-23.1c-2.2,0-4,1.8-4,4v23.1c0,2.2,1.8,4,4,4h23.1c2.2,0,4-1.8,4-4v-23.1c0-2.2-1.8-4-4-4ZM78.7,76.6c0,1.2-1,2.1-2.1,2.1h-23.1c-1.2,0-2.1-1-2.1-2.1v-3.3l6-5.1c.2-.2.5-.2.8,0l3.8,3.1c.4.3.9.3,1.2,0l9-9c.2-.2.4-.2.4-.2,0,0,.3,0,.4.2l5.8,7.1v7.2h0ZM78.7,66.4l-4.4-5.4c-.4-.5-1.1-.9-1.8-.9-.7,0-1.4.2-1.8.7l-8.4,8.4-3.1-2.6c-.9-.8-2.2-.7-3.1,0l-4.8,4.1v-17.4c0-1.2,1-2.1,2.1-2.1h23.1c1.2,0,2.1,1,2.1,2.1v13Z"/>
    <path class="st1" d="M59.3,53.3c-2.4,0-4.4,2-4.4,4.4s2,4.4,4.4,4.4,4.4-2,4.4-4.4-2-4.4-4.4-4.4ZM59.3,60.3c-1.4,0-2.6-1.2-2.6-2.6s1.2-2.6,2.6-2.6,2.6,1.2,2.6,2.6-1.2,2.6-2.6,2.6Z"/>
  </g>
</svg>