<svg width="9" height="12" viewBox="0 0 9 12" fill="none" xmlns="http://www.w3.org/2000/svg">
                        <path fill="#0B0B0B" fill-rule="evenodd" clip-rule="evenodd" d="M0.972656 3.84703C1.01023 3.3639 1.13322 2.92462 1.34045 2.52772C1.54767 2.13082 1.82375 1.79174 2.17435 1.50751C2.52124 1.22669 2.9363 1.00655 3.41359 0.854344C3.89369 0.704028 4.42791 0.62793 5.02013 0.62793C5.61293 0.62793 6.15355 0.692018 6.64064 0.823509C7.13082 0.955002 7.54966 1.1443 7.89706 1.39143C8.24718 1.63899 8.51674 1.94392 8.71058 2.30471C8.90441 2.66503 9.00053 3.07448 9.00053 3.53538C9.00053 3.76709 8.97955 3.98141 8.93559 4.17312C8.89152 4.3687 8.82338 4.55219 8.72457 4.72608C8.62845 4.8971 8.50655 5.06515 8.35358 5.22991C8.20051 5.39465 8.01636 5.56272 7.80214 5.73713C7.52986 5.95055 7.29528 6.1369 7.09066 6.29922C6.88663 6.4611 6.71637 6.62001 6.57679 6.7785C6.43721 6.93742 6.3319 7.10844 6.26376 7.29146C6.19232 7.4779 6.15476 7.70332 6.14776 7.97204H3.93504C3.93504 7.5843 3.97261 7.25479 4.04724 6.98267C4.12568 6.71099 4.23788 6.46971 4.38767 6.25287C4.53744 6.03856 4.72108 5.84055 4.93591 5.65411C5.15392 5.47063 5.39931 5.26924 5.67798 5.05536C5.87881 4.8993 6.03876 4.76252 6.15857 4.64017C6.27727 4.51827 6.38298 4.36222 6.47861 4.17246C6.57043 3.98656 6.61819 3.77888 6.61819 3.553C6.61819 3.2659 6.57742 3.04578 6.49199 2.89016C6.41096 2.73455 6.30835 2.61847 6.19296 2.54192C6.07696 2.46242 5.93687 2.40129 5.77092 2.35889C5.60336 2.31309 5.34138 2.29149 4.9806 2.29149C3.89813 2.29149 3.30592 2.81074 3.20711 3.84637L0.972728 3.84655L0.972656 3.84703ZM6.30725 11.0324H3.85284V9.07192H6.30715L6.30725 11.0324Z"/>
                    </svg>