<svg width="18" height="20" viewBox="0 0 18 20" fill="none" xmlns="http://www.w3.org/2000/svg">
    <path fill="#0B0B0B" d="M15.75 4.74913H1.6875V4.11367L14.0625 2.99528V4.11367H15.75V2.20731C15.75 0.809316 14.7476 -0.171823 13.5236 0.0251674L2.2275 1.84765C1.00238 2.04591 0 3.35113 0 4.74913V17.4582C0 18.1323 0.237053 18.7788 0.65901 19.2555C1.08097 19.7322 1.65326 20 2.25 20H15.75C16.3467 20 16.919 19.7322 17.341 19.2555C17.7629 18.7788 18 18.1323 18 17.4582V7.29094C18 6.61681 17.7629 5.97029 17.341 5.49361C16.919 5.01692 16.3467 4.74913 15.75 4.74913ZM14.0625 13.6531C13.8408 13.653 13.6213 13.6036 13.4165 13.5077C13.2118 13.4118 13.0257 13.2712 12.869 13.0941C12.7123 12.917 12.588 12.7067 12.5033 12.4753C12.4185 12.2439 12.3749 11.9959 12.375 11.7455C12.3751 11.495 12.4188 11.2471 12.5037 11.0157C12.5886 10.7844 12.713 10.5742 12.8698 10.3972C13.0266 10.2202 13.2128 10.0798 13.4176 9.98402C13.6224 9.88826 13.8419 9.83902 14.0636 9.8391C14.5113 9.83927 14.9406 10.0403 15.2571 10.3981C15.5736 10.7559 15.7513 11.241 15.7511 11.7467C15.751 12.2525 15.573 12.7375 15.2563 13.095C14.9396 13.4525 14.5102 13.6533 14.0625 13.6531Z"/>
</svg>