<svg width="20" height="20" viewBox="0 0 20 20" fill="none" xmlns="http://www.w3.org/2000/svg">
            <path fill="#0B0B0B" d="M6.00005 8.48833V15C6.00005 16.2342 5.19679 17.2389 4.20947 17.2389H4.00019V18.7499C4.00019 19.4408 3.55237 20 3.00014 20C2.44792 20 2.0001 19.4408 2.0001 18.7499V17.2389H1.79058C0.803254 17.2389 0 16.2342 0 15V8.48833C0 7.25415 0.803254 6.25007 1.79058 6.25007H2.0001V5C2.0001 4.30971 2.44792 3.74992 3.00014 3.74992C3.55237 3.74992 4.00019 4.30971 4.00019 5V6.25007H4.20971C5.19703 6.25007 6.00005 7.25415 6.00005 8.48833ZM18.2087 6.25007H17.9997V5C17.9997 4.30971 17.5523 3.74992 16.9996 3.74992C16.4469 3.74992 15.9996 4.30971 15.9996 5V6.25007H15.7905C14.8032 6.25007 13.9995 7.25415 13.9995 8.48833V15C13.9995 16.2342 14.8032 17.2389 15.7905 17.2389H15.9998V18.7499C15.9998 19.4408 16.4472 20 16.9999 20C17.5526 20 17.9999 19.4408 17.9999 18.7499V17.2389H18.2089C19.1963 17.2389 20 16.2342 20 15V8.48833C19.9998 7.25415 19.196 6.25007 18.2087 6.25007ZM11.2088 2.50015H10.9998V1.25007C10.9998 0.559789 10.552 0 9.99976 0C9.44754 0 8.99971 0.559789 8.99971 1.25007V2.50015H8.7902C7.80287 2.50015 6.99962 3.50423 6.99962 4.7384V11.5114C6.99962 12.7455 7.80287 13.7502 8.7902 13.7502H8.99971V15.0003C8.99971 15.6912 9.44754 16.2504 9.99976 16.2504C10.552 16.2504 10.9998 15.6912 10.9998 15.0003V13.7499H11.2088C12.1962 13.7499 12.9999 12.7452 12.9999 11.5111V4.7384C12.9999 3.50423 12.1962 2.50015 11.2088 2.50015Z"/>
        </svg>