<svg width="60" height="50" viewBox="0 0 60 50" fill="none" xmlns="http://www.w3.org/2000/svg">
                            <path fill="#0B0B0B" d="M52.1355 6.22519C51.8157 5.84975 51.4017 5.5597 50.9125 5.37202L39.2288 1.07198C38.4574 0.799002 37.5355 0.799002 36.8017 1.19145C35.9363 1.58387 35.3906 2.41997 35.3154 3.29022C34.9391 3.75097 33.02 4.68943 29.8968 4.68943C26.7737 4.68943 24.8546 3.75097 24.4783 3.29022C24.4406 1.58387 22.3146 0.372432 20.6025 1.0549L8.88114 5.37202C8.39195 5.5597 7.97798 5.84975 7.65817 6.22519L1.28004 14.0743C0.56509 14.9617 0.54637 16.1731 1.26132 17.0775L8.16618 25.8311C9.08807 27.0426 11.1389 27.2474 12.3241 26.2406L13.7352 47.3311C13.8105 48.6792 15.0522 49.7371 16.5386 49.7371H43.255C44.7414 49.7371 45.9831 48.6791 46.0585 47.3311L47.4695 26.2406C48.6547 27.2474 50.7056 27.0426 51.6275 25.8311L58.5323 17.0775C59.2473 16.1731 59.2286 14.9617 58.5136 14.0743L52.1355 6.22519Z"/>
                        </svg>