<svg viewBox="0 0 13 12" fill="none" xmlns="http://www.w3.org/2000/svg">
                                    <path fill="#0B0B0B" d="M12.8039 5.17967C12.8904 5.09846 12.9516 4.9956 12.9808 4.88265C13.0099 4.7697 13.0059 4.65114 12.9691 4.54029C12.9322 4.42944 12.8641 4.3307 12.7724 4.25515C12.6806 4.17961 12.5688 4.13027 12.4496 4.11266L9.08324 3.6373C8.9788 3.62372 8.87947 3.58538 8.79414 3.5257C8.70881 3.46602 8.64012 3.38686 8.59423 3.29531L7.08114 0.350776C7.0273 0.245483 6.944 0.15683 6.84068 0.0948411C6.73735 0.032852 6.61812 0 6.49646 0C6.37479 0 6.25556 0.032852 6.15223 0.0948411C6.04891 0.15683 5.96562 0.245483 5.91177 0.350776L4.40577 3.29531C4.35988 3.38686 4.29119 3.46602 4.20586 3.5257C4.12053 3.58538 4.0212 3.62372 3.91676 3.6373L0.550404 4.11266C0.431178 4.13027 0.319403 4.17961 0.227638 4.25515C0.135873 4.3307 0.0677566 4.42944 0.0309434 4.54029C-0.00586981 4.65114 -0.00992062 4.7697 0.0192462 4.88265C0.048413 4.9956 0.109641 5.09846 0.19605 5.17967L2.634 7.47443C2.70929 7.54531 2.76568 7.63271 2.79839 7.72918C2.83109 7.82566 2.83913 7.92833 2.82181 8.02845L2.24421 11.2671C2.22346 11.3824 2.23665 11.5011 2.28227 11.6095C2.32789 11.718 2.40412 11.812 2.5023 11.8807C2.60048 11.9495 2.71666 11.9903 2.83766 11.9985C2.95866 12.0067 3.07962 11.982 3.18679 11.9271L6.20234 10.3984C6.29589 10.3514 6.39982 10.3268 6.50531 10.3268C6.61081 10.3268 6.71474 10.3514 6.80829 10.3984L9.82029 11.9271C9.92702 11.9782 10.0463 12 10.1649 11.9899C10.2836 11.9799 10.3971 11.9386 10.4931 11.8704C10.589 11.8022 10.6636 11.7098 10.7087 11.6034C10.7538 11.497 10.7676 11.3806 10.7487 11.2671L10.1711 8.02845C10.1538 7.92833 10.1618 7.82566 10.1945 7.72918C10.2272 7.63271 10.2836 7.54531 10.3589 7.47443L12.8039 5.17967Z"/>
                                </svg>